<svg xmlns="http://www.w3.org/2000/svg" width="30" height="30" viewBox="0 0 445 445" fill="none"><path d="M159.103 249.966C151.292 242.155 151.292 229.492 159.103 221.682L222.035 158.749C229.846 150.939 242.509 150.939 250.319 158.749L286.382 194.811C294.192 202.622 294.192 215.285 286.382 223.096L223.449 286.028C215.639 293.839 202.976 293.839 195.165 286.028L159.103 249.966Z" fill="currentcolor"></path><path d="M271.886 48.7939C264.076 40.9834 264.076 28.3201 271.886 20.5096L286.205 6.19072C294.016 -1.61977 306.679 -1.61977 314.489 6.19072L330.399 22.1006C338.21 29.9111 350.873 29.9111 358.683 22.1006L373.002 7.78171C380.813 -0.0287748 393.476 -0.0287748 401.287 7.78171L437.349 43.8442C445.16 51.6546 445.16 64.3179 437.349 72.1284L423.03 86.4473C415.22 94.2578 415.22 106.921 423.03 114.732L438.587 130.288C446.397 138.098 446.397 150.762 438.587 158.572L424.268 172.891C416.457 180.702 403.794 180.702 395.983 172.891L271.886 48.7939Z" fill="currentcolor"></path><path d="M49.5011 271.886C41.6906 264.076 29.0273 264.076 21.2168 271.886L6.72109 286.382C-1.0894 294.192 -1.0894 306.856 6.72109 314.666L22.5285 330.473C30.3389 338.284 30.3389 350.947 22.5285 358.758L8.03276 373.253C0.222274 381.064 0.222274 393.727 8.03276 401.538L43.9459 437.451C51.7564 445.261 64.4197 445.261 72.2302 437.451L86.7259 422.955C94.5364 415.145 107.2 415.145 115.01 422.955L130.465 438.41C138.275 446.22 150.939 446.22 158.749 438.41L173.245 423.914C181.055 416.104 181.055 403.44 173.245 395.63L49.5011 271.886Z" fill="currentcolor"></path><path d="M41.0158 240.773C33.2053 232.963 33.2053 220.3 41.0158 212.489L55.865 197.64C63.6755 189.829 76.3388 189.829 84.1493 197.64L248.198 361.689C256.009 369.499 256.009 382.162 248.198 389.973L233.349 404.822C225.538 412.633 212.875 412.633 205.065 404.822L41.0158 240.773Z" fill="currentcolor"></path><path d="M197.993 83.7957C190.183 75.9852 190.183 63.3219 197.993 55.5114L212.843 40.6622C220.653 32.8517 233.316 32.8517 241.127 40.6622L405.176 204.711C412.986 212.521 412.986 225.185 405.176 232.995L390.327 247.844C382.516 255.655 369.853 255.655 362.042 247.844L197.993 83.7957Z" fill="currentcolor"></path></svg>